<?xml version="1.0" encoding="UTF-8"?>
<svg version="1.1" xmlns="http://www.w3.org/2000/svg" width="520" height="575">
<path d="M0 0 C4.0291306 1.5543663 7.86793636 3.36872657 11.74023438 5.27514648 C12.53796265 5.66432755 13.33569092 6.05350861 14.15759277 6.45448303 C16.73905954 7.71520701 19.31780824 8.98138199 21.89648438 10.24780273 C23.67892324 11.119779 25.46147579 11.99152291 27.24414062 12.86303711 C37.17219716 17.7216872 47.07721114 22.62336062 56.94873047 27.59594727 C64.0416608 31.15971226 71.20223028 34.57263624 78.37304688 37.97631836 C86.09714156 41.65668337 93.75263812 45.46654302 101.39648438 49.31030273 C110.81942742 54.04864942 120.28428503 58.6785222 129.81445312 63.19702148 C138.17272401 67.17272196 146.44152298 71.31821855 154.70996094 75.47680664 C161.69370303 78.98112273 168.71131142 82.40039206 175.77148438 85.74780273 C184.97344328 90.11135368 194.08892067 94.63559801 203.18713379 99.21075439 C212.09528545 103.68798569 221.04276348 108.06783665 230.06054688 112.32006836 C238.91734278 116.50927815 247.62297755 120.92354932 256.39648438 125.31030273 C256.39648438 231.24030273 256.39648438 337.17030273 256.39648438 446.31030273 C215.62085938 466.70842773 174.84523438 487.10655273 132.83398438 508.12280273 C119.95036865 514.5691626 107.06675293 521.01552246 93.79272461 527.65722656 C78.08215332 535.51477051 78.08215332 535.51477051 70.73158264 539.19047546 C65.58806737 541.7626997 60.44510139 544.33601819 55.30250549 546.91007996 C49.3716064 549.87871227 43.44001483 552.84595545 37.50756389 555.81148545 C34.47293256 557.32849992 31.43873097 558.8463571 28.40519226 560.36555636 C25.15548382 561.992893 21.90455439 563.61776429 18.65330505 565.24201965 C17.7090117 565.71562266 16.76471834 566.18922567 15.79181004 566.67718029 C0.85127278 574.13051179 0.85127278 574.13051179 -4.60351562 573.31030273 C-8.00432071 571.99083019 -11.20776656 570.3446643 -14.44335938 568.66577148 C-15.40133926 568.18135086 -16.35931915 567.69693024 -17.34632874 567.1978302 C-20.41709109 565.64239591 -23.47923774 564.07083731 -26.54101562 562.49780273 C-29.54365613 560.9673176 -32.54806438 559.44038705 -35.55360413 557.91560364 C-37.41717628 556.96885439 -39.27895188 556.01855276 -41.13816833 555.0632782 C-46.53428951 552.30692483 -51.96811684 549.6544009 -57.44462585 547.06246376 C-76.45223969 538.05552755 -95.22198452 528.56517484 -114.02866364 519.14836884 C-118.71961269 516.80000902 -123.41167566 514.45387924 -128.1036377 512.10754395 C-141.75052907 505.28149306 -155.39566957 498.45194221 -169.04101562 491.62280273 C-199.58664063 476.33967773 -230.13226563 461.05655273 -261.60351562 445.31030273 C-261.60351562 340.04030273 -261.60351562 234.77030273 -261.60351562 126.31030273 C-239.71032101 114.78756873 -239.71032101 114.78756873 -232.80664062 111.34545898 C-232.00866058 110.94580933 -231.21068054 110.54615967 -230.38851929 110.13439941 C-227.87800483 108.87820943 -225.36589771 107.62525269 -222.85351562 106.37280273 C-221.97701355 105.93499481 -221.10051147 105.49718689 -220.19744873 105.04611206 C-209.74450806 99.82580795 -199.27069011 94.66462428 -188.70214844 89.68164062 C-178.59043845 84.88418782 -168.60616236 79.82982928 -158.60351562 74.81030273 C-146.93629569 68.95546034 -135.26767457 63.12594897 -123.45898438 57.56030273 C-113.76452865 52.96367011 -104.1919407 48.12287971 -94.60351562 43.31030273 C-83.36391531 37.66897569 -72.12263452 32.0536496 -60.74072266 26.70336914 C-54.12940306 23.5723319 -47.58940361 20.30816124 -41.05664062 17.01733398 C-40.11086151 16.54149368 -39.1650824 16.06565338 -38.19064331 15.57539368 C-33.39138404 13.1598237 -28.59581554 10.73730646 -23.80517578 8.3046875 C-22.02713085 7.40789842 -20.24897794 6.51132339 -18.47070312 5.61499023 C-17.65087952 5.19574783 -16.83105591 4.77650543 -15.98638916 4.34455872 C-12.18479011 2.43530043 -8.85972147 0.91345758 -4.60351562 0.31030273 C-2.60351562 -0.68969727 -2.60351562 -0.68969727 0 0 Z M-6.50463867 33.15527344 C-7.31200974 33.5606282 -8.1193808 33.96598297 -8.95121765 34.38362122 C-9.83034317 34.82993393 -10.70946869 35.27624664 -11.61523438 35.73608398 C-12.52686844 36.19468307 -13.4385025 36.65328217 -14.37776184 37.1257782 C-16.33387962 38.11005434 -18.28914694 39.09602209 -20.24365234 40.08349609 C-25.31101059 42.64315751 -30.38480819 45.18997114 -35.45898438 47.73608398 C-36.44764496 48.23238312 -37.43630554 48.72868225 -38.45492554 49.24002075 C-45.30319791 52.67256384 -52.1754357 56.04128741 -59.10351562 59.31030273 C-67.93944985 63.48081027 -76.68046949 67.82912256 -85.40917969 72.21826172 C-94.18436843 76.62852175 -103.00644191 80.92040985 -111.88085938 85.12670898 C-120.11218748 89.04258352 -128.2594565 93.12019587 -136.402771 97.21505737 C-145.22242898 101.64769091 -154.08895272 105.9626305 -163.00830078 110.19042969 C-171.49249866 114.22527201 -179.88467131 118.43580111 -188.27734375 122.65698242 C-196.98418974 127.02626488 -205.75701527 131.23204143 -214.60351562 135.31030273 C-211.77980108 137.54194031 -208.95890065 139.2567819 -205.7409668 140.86303711 C-204.77442673 141.34784546 -203.80788666 141.83265381 -202.8120575 142.33215332 C-201.76741837 142.85088013 -200.72277924 143.36960693 -199.64648438 143.90405273 C-198.55249832 144.45081665 -197.45851227 144.99758057 -196.33137512 145.56091309 C-194.00465787 146.72276007 -191.67696791 147.88266081 -189.34838867 149.04077148 C-185.86803567 150.77199093 -182.39078958 152.50931516 -178.9140625 154.24780273 C-167.28465306 160.05300249 -155.61817341 165.76645982 -143.87919617 171.34667969 C-134.93780642 175.60586363 -126.08267909 180.02937023 -117.23748779 184.48416138 C-104.70046895 190.79624751 -92.15634961 197.07580811 -79.45898438 203.06030273 C-68.87563797 208.07840347 -58.43236332 213.38066704 -47.96490479 218.63473511 C-35.22043544 225.02957849 -22.44182267 231.33002039 -9.53417969 237.39086914 C-7.60351562 238.31030273 -7.60351562 238.31030273 -5.72753906 239.49145508 C-1.70641982 241.04166588 1.65329144 239.62885621 5.46655273 237.99438477 C6.54557861 237.44121582 7.62460449 236.88804687 8.73632812 236.31811523 C9.62740517 235.8662812 9.62740517 235.8662812 10.53648376 235.40531921 C11.80934764 234.75899022 13.08040807 234.10909928 14.34979248 233.45596313 C17.74378816 231.71010529 21.15120575 229.99073944 24.55664062 228.26733398 C25.23714478 227.92202133 25.91764893 227.57670868 26.61877441 227.22093201 C32.12757799 224.43038901 37.68434069 221.75297847 43.27148438 219.12280273 C54.06482359 214.02129062 64.72751402 208.66531456 75.39648438 203.31030273 C96.63528409 192.65017465 96.63528409 192.65017465 106.77148438 187.87280273 C118.68441974 182.25696767 130.4312688 176.30929603 142.20166016 170.40258789 C153.19912762 164.88553469 164.20820542 159.41664133 175.33422852 154.16259766 C187.45686377 148.42114916 199.417016 142.34313808 211.39648438 136.31030273 C207.52506508 133.03604611 203.04950094 131.0531669 198.51757812 128.86499023 C197.61965042 128.42717224 196.72172272 127.98935425 195.79658508 127.53826904 C192.81089393 126.08346165 189.8224082 124.63448732 186.83398438 123.18530273 C184.71754086 122.15501865 182.60133424 121.12424779 180.48535156 120.09301758 C176.03636702 117.9250257 171.58654045 115.75877552 167.13623047 113.59350586 C157.51660331 108.9104234 147.91139077 104.19797851 138.30618286 99.4854126 C134.04255001 97.39372589 129.7783454 95.30320618 125.5141449 93.212677 C122.2880252 91.63106422 119.06197458 90.04931059 115.8359375 88.4675293 C106.24700165 83.76602387 96.65755371 79.06556315 87.06814575 74.36502075 C83.91771883 72.82071166 80.7673257 71.27633363 77.61694336 69.73193359 C67.65546742 64.8486052 57.69376324 59.96574374 47.73135376 55.08432007 C43.02409925 52.77783465 38.31698286 50.4710674 33.60986328 48.16430664 C31.36529142 47.06441809 29.12066367 45.96464357 26.87597656 44.86499023 C23.76418144 43.34053917 20.6525789 41.81569569 17.54101562 40.29077148 C16.62878738 39.84400558 15.71655914 39.39723969 14.77668762 38.93693542 C13.48984322 38.30613823 13.48984322 38.30613823 12.17700195 37.66259766 C11.37058258 37.26793304 10.56416321 36.87326843 9.73330688 36.46664429 C8.17044084 35.69328348 6.61308601 34.90868783 5.06137085 34.1131897 C-0.73985461 31.11528696 -0.73985461 31.11528696 -6.50463867 33.15527344 Z M-233.60351562 159.31030273 C-233.60351562 247.42030273 -233.60351562 335.53030273 -233.60351562 426.31030273 C-219.2584339 433.89819974 -219.2584339 433.89819974 -204.80856323 441.27127075 C-203.98449136 441.68408668 -203.16041949 442.09690262 -202.31137574 442.52222812 C-199.63738622 443.86116655 -196.96202533 445.19733823 -194.28662109 446.53344727 C-192.33464478 447.51011509 -190.38275322 448.48695232 -188.43093872 449.46394348 C-183.19755184 452.0828897 -177.96292893 454.69935588 -172.72800207 457.31522226 C-167.23197489 460.06195941 -161.7369334 462.81066731 -156.24172974 465.55905151 C-147.03866114 470.161491 -137.83475814 474.76225845 -128.63037109 479.36206055 C-117.97978369 484.68461911 -107.33065634 490.01009017 -96.68225944 495.33702958 C-87.5200385 499.92040406 -78.35704409 504.5022293 -69.19339287 509.08274353 C-63.72761298 511.81485313 -58.26210647 514.54750591 -52.79729843 517.28155899 C-47.67794376 519.84267391 -42.55762493 522.40185056 -37.43653488 524.95949364 C-35.55312213 525.9005359 -33.67005385 526.84226794 -31.78734589 527.78471947 C-29.23006712 529.06471298 -26.67158498 530.34226727 -24.11276245 531.61917114 C-23.3582278 531.99755383 -22.60369316 532.37593651 -21.82629383 532.76578534 C-18.84820939 534.52858392 -18.84820939 534.52858392 -15.60351562 535.31030273 C-15.60351562 446.54030273 -15.60351562 357.77030273 -15.60351562 266.31030273 C-30.42178382 258.47565922 -30.42178382 258.47565922 -45.35351562 250.87280273 C-46.27229492 250.41437988 -47.19107422 249.95595703 -48.13769531 249.48364258 C-54.34471195 246.39912887 -60.58944562 243.40179556 -66.85351562 240.43530273 C-78.18974734 235.06545555 -89.39283439 229.43617708 -100.60351562 223.81030273 C-112.27072072 217.95543046 -123.93935732 212.12594867 -135.74804688 206.56030273 C-146.33817606 201.53898594 -156.78804007 196.23311133 -167.26226807 190.97579956 C-178.03592905 185.570029 -188.82436391 180.21821037 -199.7253418 175.07275391 C-207.91273845 171.19892173 -215.99945478 167.1298223 -224.06835938 163.01538086 C-225.02484375 162.53133789 -225.98132813 162.04729492 -226.96679688 161.54858398 C-227.81540283 161.11586182 -228.66400879 160.68313965 -229.53833008 160.23730469 C-231.53033498 159.17380008 -231.53033498 159.17380008 -233.60351562 159.31030273 Z M223.76098633 161.52246094 C222.31094963 162.25001335 222.31094963 162.25001335 220.83161926 162.99226379 C219.77665756 163.52647446 218.72169586 164.06068512 217.63476562 164.61108398 C216.53794968 165.16209274 215.44113373 165.7131015 214.31108093 166.2808075 C211.37084102 167.75835568 208.43223804 169.23909152 205.49456787 170.72174072 C200.31464948 173.33569168 195.1317559 175.94371446 189.94726562 178.54858398 C188.80669708 179.1216629 187.66612854 179.69474182 186.49099731 180.28518677 C178.23876204 184.41853246 169.93474827 188.43123291 161.59773254 192.39021301 C152.9673037 196.49477435 144.42038698 200.75630194 135.88604736 205.05636597 C113.31272419 216.42604009 113.31272419 216.42604009 102.02148438 221.74780273 C90.113619 227.36124777 78.37091264 233.30497778 66.60641479 239.21096802 C55.31950082 244.87577557 44.02977453 250.51618742 32.58203125 255.85131836 C25.67668296 259.08980677 19.15547539 262.67084603 12.39648438 266.31030273 C12.39648438 355.08030273 12.39648438 443.85030273 12.39648438 535.31030273 C26.84877662 528.50007627 26.84877662 528.50007627 41.19143677 521.47631836 C42.01550864 521.06506242 42.83958051 520.65380648 43.68862426 520.23008823 C46.3644781 518.89410634 49.03894007 517.55536467 51.71337891 516.21655273 C53.66519092 515.24132633 55.61708762 514.2662694 57.56906128 513.29136658 C62.80430125 510.67600017 68.03829801 508.05815534 73.27199793 505.43970871 C78.76681924 502.69102189 84.2626255 499.94430557 89.75827026 497.19726562 C98.96277515 492.59591852 108.1664428 487.99290018 117.36962891 483.38891602 C128.01778493 478.06210349 138.66739422 472.73820511 149.31774056 467.41577339 C158.48143134 462.83619237 167.64434645 458.2550623 176.80660713 453.67262077 C182.27155793 450.93936515 187.73677901 448.20665368 193.20270157 445.4753418 C198.32385908 442.91620114 203.44404368 440.35512462 208.56346512 437.79251289 C210.44617832 436.85049242 212.32923631 435.90916067 214.21265411 434.96854973 C216.77177391 433.69034494 219.32966311 432.40971137 221.88723755 431.12841797 C222.6417722 430.75226601 223.39630684 430.37611404 224.17370617 429.98856354 C227.50393902 428.47347846 227.50393902 428.47347846 230.39648438 426.31030273 C230.4930915 424.88201656 230.52020272 423.44896643 230.5195322 422.01741695 C230.52152325 421.08535929 230.5235143 420.15330162 230.52556568 419.19299978 C230.52119642 417.63904425 230.52119642 417.63904425 230.51673889 416.05369568 C230.51759332 414.96253277 230.51844774 413.87136987 230.51932806 412.74714142 C230.52098608 409.06041525 230.51545624 405.37373375 230.51000977 401.68701172 C230.50972794 399.05635581 230.50988554 396.42569981 230.51045227 393.79504395 C230.51097769 388.11577828 230.50782899 382.43652406 230.50221443 376.75726128 C230.4941019 368.54590962 230.49148447 360.33456352 230.49022644 352.12320829 C230.48803553 338.8021878 230.48137439 325.48117342 230.47192383 312.16015625 C230.46275072 299.21679719 230.45566939 286.27343978 230.45141602 273.33007812 C230.45115329 272.53281303 230.45089057 271.73554793 230.45061988 270.91412329 C230.44931489 266.91464691 230.44805117 262.91517052 230.44680798 258.91569412 C230.43643416 225.71389254 230.41881479 192.51209845 230.39648438 159.31030273 C227.71198959 159.31030273 226.16166056 160.31159224 223.76098633 161.52246094 Z " fill="#C883FF" transform="translate(263.603515625,1.689697265625)"/>
</svg>
